<?xml version="1.0" standalone="no"?>
<!DOCTYPE svg PUBLIC "-//W3C//DTD SVG 20010904//EN"
 "http://www.w3.org/TR/2001/REC-SVG-20010904/DTD/svg10.dtd">
<svg version="1.0" xmlns="http://www.w3.org/2000/svg"
 width="1536.000000pt" height="1536.000000pt" viewBox="0 0 1536.000000 1536.000000"
 preserveAspectRatio="xMidYMid meet">
<metadata>
Created by potrace 1.11, written by Peter Selinger 2001-2013
</metadata>
<g transform="translate(0.000000,1536.000000) scale(0.100000,-0.100000)"
fill="#000000" stroke="none">
<path d="M5990 13584 c0 -340 1 -364 18 -364 9 -1 287 -2 617 -3 l600 -2 2
-1730 c1 -951 2 -1738 2 -1747 1 -17 29 -18 441 -18 l440 0 0 1749 0 1749 508
1 c279 0 558 0 620 1 l112 0 0 364 0 364 -1680 0 -1680 0 0 -364z"/>
<path d="M2640 7665 l0 -555 5055 0 5055 0 0 555 0 555 -5055 0 -5055 0 0
-555z"/>
<path d="M5450 3494 l0 -2114 395 0 395 0 0 1424 c0 941 3 1427 10 1431 6 3
14 -5 20 -19 5 -15 19 -46 30 -70 11 -25 20 -49 20 -54 0 -4 11 -32 25 -60 14
-29 25 -56 25 -60 0 -5 6 -22 14 -38 8 -16 94 -225 191 -464 97 -239 182 -448
190 -465 7 -16 66 -160 130 -320 64 -159 123 -303 130 -320 7 -16 33 -79 58
-140 142 -351 180 -443 192 -470 8 -16 41 -97 74 -180 l60 -150 279 -3 279 -2
93 227 c51 126 126 307 165 403 40 96 105 256 144 355 40 99 77 189 82 200 20
45 139 336 139 341 0 3 8 24 19 47 10 23 73 177 141 342 67 165 128 314 135
330 7 17 20 48 28 70 21 53 134 332 151 370 8 17 21 51 31 77 9 26 23 49 31
52 12 5 14 -209 14 -1424 l0 -1430 395 0 395 0 0 2114 0 2114 -514 0 -513 -1
-23 -56 c-12 -31 -26 -65 -30 -76 -5 -11 -37 -90 -70 -175 -64 -162 -69 -173
-93 -230 -8 -19 -40 -100 -72 -180 -31 -80 -63 -158 -70 -175 -18 -41 -593
-1478 -617 -1540 -10 -27 -21 -54 -23 -60 -2 -5 -48 -120 -103 -255 -61 -152
-104 -245 -112 -245 -9 0 -91 192 -226 530 -116 292 -217 541 -223 555 -5 14
-42 106 -81 205 -39 99 -77 194 -85 210 -7 17 -38 95 -70 175 -32 80 -63 159
-70 175 -8 17 -39 95 -70 175 -32 80 -62 156 -68 170 -6 14 -11 27 -12 30 -1
3 -8 21 -16 40 -9 19 -78 191 -154 382 l-138 347 -514 -1 -513 -1 0 -2113z"/>
</g>
</svg>
